<svg xmlns="http://www.w3.org/2000/svg" version="1.1" xmlns:xlink="http://www.w3.org/1999/xlink" xmlns:svgjs="http://svgjs.com/svgjs" width="1440" height="560" preserveAspectRatio="none" viewBox="0 0 1440 560"><g mask="url(&quot;#SvgjsMask1195&quot;)" fill="none"><rect width="1440" height="560" x="0" y="0" fill="rgba(38, 40, 43, 1)"></rect><g transform="translate(345.6, -95.2)" stroke-linecap="round"><path d="M370 228.31 L370 331.69" stroke-width="15" stroke="rgba(215, 30, 184, 1)"></path><path d="M390 213.34 L390 346.65" stroke-width="15" stroke="rgba(215, 30, 184, 1)"></path><path d="M410 178.13 L410 381.87" stroke-width="15" stroke="rgba(95, 133, 219, 1)"></path><path d="M430 261.8 L430 298.2" stroke-width="15" stroke="rgba(215, 30, 184, 1)"></path><path d="M450 174.06 L450 385.94" stroke-width="15" stroke="rgba(95, 133, 219, 1)"></path><path d="M470 192.45 L470 367.55" stroke-width="15" stroke="rgba(95, 133, 219, 1)"></path><path d="M490 231.23 L490 328.77" stroke-width="15" stroke="rgba(95, 133, 219, 1)"></path><path d="M510 263.66 L510 296.34" stroke-width="15" stroke="rgba(95, 133, 219, 1)"></path><path d="M530 210.69 L530 349.31" stroke-width="15" stroke="rgba(95, 133, 219, 1)"></path><path d="M550 174.28 L550 385.73" stroke-width="15" stroke="rgba(215, 30, 184, 1)"></path><path d="M570 219.68 L570 340.32" stroke-width="15" stroke="rgba(95, 133, 219, 1)"></path><path d="M590 212.41 L590 347.59" stroke-width="15" stroke="rgba(215, 30, 184, 1)"></path><path d="M610 226.04 L610 333.96" stroke-width="15" stroke="rgba(215, 30, 184, 1)"></path><path d="M630 261.23 L630 298.77" stroke-width="15" stroke="rgba(95, 133, 219, 1)"></path><path d="M650 219.2 L650 340.8" stroke-width="15" stroke="rgba(215, 30, 184, 1)"></path><path d="M670 246.4 L670 313.61" stroke-width="15" stroke="rgba(95, 133, 219, 1)"></path><path d="M690 218.4 L690 341.6" stroke-width="15" stroke="rgba(95, 133, 219, 1)"></path><path d="M710 229.78 L710 330.22" stroke-width="15" stroke="rgba(215, 30, 184, 1)"></path><path d="M730 223.54 L730 336.46" stroke-width="15" stroke="rgba(215, 30, 184, 1)"></path><path d="M750 253.66 L750 306.34" stroke-width="15" stroke="rgba(215, 30, 184, 1)"></path><path d="M770 206.82 L770 353.18" stroke-width="15" stroke="rgba(95, 133, 219, 1)"></path><path d="M790 230.53 L790 329.48" stroke-width="15" stroke="rgba(95, 133, 219, 1)"></path><path d="M810 265.42 L810 294.58" stroke-width="15" stroke="rgba(215, 30, 184, 1)"></path><path d="M830 161.2 L830 398.8" stroke-width="15" stroke="rgba(95, 133, 219, 1)"></path><path d="M850 261.5 L850 298.5" stroke-width="15" stroke="rgba(215, 30, 184, 1)"></path><path d="M870 191.13 L870 368.88" stroke-width="15" stroke="rgba(95, 133, 219, 1)"></path><path d="M890 152.93 L890 407.07" stroke-width="15" stroke="rgba(95, 133, 219, 1)"></path><path d="M910 240.53 L910 319.47" stroke-width="15" stroke="rgba(95, 133, 219, 1)"></path><path d="M930 247.06 L930 312.94" stroke-width="15" stroke="rgba(95, 133, 219, 1)"></path><path d="M950 192.7 L950 367.3" stroke-width="15" stroke="rgba(215, 30, 184, 1)"></path><path d="M970 168.56 L970 391.44" stroke-width="15" stroke="rgba(215, 30, 184, 1)"></path><path d="M990 235.3 L990 324.7" stroke-width="15" stroke="rgba(95, 133, 219, 1)"></path><path d="M1010 150.6 L1010 409.4" stroke-width="15" stroke="rgba(215, 30, 184, 1)"></path><path d="M1030 246.4 L1030 313.6" stroke-width="15" stroke="rgba(95, 133, 219, 1)"></path><path d="M1050 253.14 L1050 306.86" stroke-width="15" stroke="rgba(95, 133, 219, 1)"></path><path d="M1070 217.59 L1070 342.41" stroke-width="15" stroke="rgba(215, 30, 184, 1)"></path></g></g><defs><mask id="SvgjsMask1195"><rect width="1440" height="560" fill="#ffffff"></rect></mask></defs></svg>